<?xml version="1.0" encoding="utf-8"?>
<!-- Generator: Adobe Illustrator 26.0.0, SVG Export Plug-In . SVG Version: 6.00 Build 0)  -->
<svg version="1.1" id="Layer_1" xmlns="http://www.w3.org/2000/svg" xmlns:xlink="http://www.w3.org/1999/xlink" x="0px" y="0px"
	 viewBox="0 0 1500 628.8" style="enable-background:new 0 0 1500 628.8;" xml:space="preserve">
<style type="text/css">
	.st0{fill:#0130CC;}
</style>
<g>
	<path class="st0" d="M1374.4,501.7c-1.5,18-48.4,14.9-66.8,14.9c-291.1,5.6-568.4,24.2-844.9,45.9c-72.2,6.2-149,12.4-224.3,18
		c-20,1.9-55.3,13.7-60.7-10.6c7.7-19.9,39.2-17.4,59.1-18.6c261.9-21.7,527.7-42.2,803.4-54.6c101.4-3.7,202-10.5,303.4-9.9
		C1360.6,484.4,1374.4,490.6,1374.4,501.7z"/>
	<g>
		<path class="st0" d="M214.2,311.6c93.5-73.1,166.6-165.4,253.3-246.5C480,53.9,493,38.4,512.2,38.4c20.4,6.8,9.3,41.5-5,46.5
			c-7.4,0.6-11.2-1.3-14.9-4.4c-88,82.4-164.8,175.9-258.3,253.4c43.4,34.7,125.7,44.6,198.2,32.8c50.8-8.1,91.7-27.9,127-52.7
			c12.4-8.1,22.9-19.2,37.8-22.3c32.2,12.4-8.7,38.4-22.3,46.5c-44.6,30.3-104.1,57.6-177.8,60.7c-78.7,3.1-146.2-11.1-187.7-48.9
			c-11.1,8.7-37.8,16.1-51.4,4.3c-31,59.5-61.9,119.5-89.8,182.7c8.1,1.2,14.3,3.7,16.7,9.9c1.9,14.9-9.9,22.9-16.7,30.3
			c-6.8,7.4-14.9,18.6-30.3,16.1c-3.7-2.5-6.8-5.6-9.9-8.7c-2.5-32.8,14.9-52.7,22.3-78.1C82.3,438,117,371.1,151.7,305.4
			c3.7-19.8,8.7-38.4,25.4-45.8c22.9-43.4,47.1-85.5,73.1-125.8c-3.7-3.7-8.7-5.6-8.1-14.2c8.1-21.1,26.6-33.4,40.3-49.5
			c15.5-16.1,26.6-35.9,47.1-46.5c29.1,4.3,8.1,29.7-1.9,43.4c-19.8,28.5-42.1,61.3-57.6,87.9c-24.8,39.7-48.3,81.1-71.9,122.7
			C203.1,289.3,208,301.1,214.2,311.6z M191.3,327.1c-5-5-5.6-12.4-11.1-16.1c-2.5,5-2.5,13-2.5,21.1
			C183.9,332,188.2,329.5,191.3,327.1z"/>
		<path class="st0" d="M619.9,294.2c0,9.3-7.4,10.5-11.8,16.7c-5.6,9.3-13,25.4-9.9,36.5c2.5,8.1,14.2,12.4,25.4,13
			c20.4,0.6,43.4-4.3,64.4-9.3c38.4-8.7,75.6-21.7,108.4-36.5c18-8.1,31.6-19.8,48.3-24.2c7.4,1.2,11.8,6.2,12.4,13.6
			c-0.6,10.5-11.1,16.1-19.8,21.1c-40.9,24.8-93.5,41.5-148.7,53.9c-36.5,8.1-85.5,18-109-7.4c-21.7-28.5-0.6-75.6,18-93.5
			c0.6,0,1.9,0,3.1,0C611.9,275,619.9,283.1,619.9,294.2z M701.1,180.3c-8.7,28.5-35.3,0-49.6-5.6c-6.8-9.3-2.5-24.2,10.5-24.2
			C674.4,151.2,698,166,701.1,180.3z"/>
		<path class="st0" d="M881.3,328.3c6.2-9.9,14.3-19.2,21.1-28.5c6.8-8.7,13-21.7,26.6-22.3c33.5,9.9-9.3,61.3,3.7,87.3
			c30.3-8.7,45.8-31.6,64.4-52c8.7-10.5,16.1-22.3,24.8-32.8c8.7-10.5,9.9-27.9,26-31c18.6-0.6,14.3,22.3,8.7,33.5
			c11.8,20.4,35.3,27.9,63.8,27.3c27.9-0.6,51.4-10.5,75.6-13.6c5,3.1,9.3,6.2,8.1,15.5c-12.4,17.3-40.9,18.6-64.4,24.8
			c-46.5,2.5-80.5-7.4-101.6-30.3c-11.8,16.7-26,34.7-42.1,50.8c-17.3,17.3-35.9,37.2-68.8,38.4c-18.6-5-26-21.7-24.8-47.1
			c-11.1,11.8-22.9,26-35.3,39c-12.4,12.4-24.2,28.5-47.7,28.5c-13-4.3-16.7-16.7-14.9-35.9c3.1-32.2,24.2-68.1,32.8-92.3
			c-0.6-3.7-1.2-6.8-1.2-11.2c8.7-13,27.3-59.5,47.1-28.5c-5.6,23.5-17.3,44-26,64.4c-8.7,21.1-17.3,41.5-23.5,65.7
			C851.6,366.7,865.8,344.4,881.3,328.3z"/>
		<path class="st0" d="M1202.7,336.4c2.5,17.4,20.4,24.2,38.4,25.4c56.4,2.5,120.8-24.8,159.8-43.4c13.6-5,26-26.6,44.6-16.1
			c6.8,13-5,21.1-13.6,27.3c-24.8,17.4-57,30.4-89.2,40.3c-42.7,12.4-99.7,28.5-142.5,8.7c-4.3-3.7-9.3-7.4-13.6-11.8
			c-1.9-3.7-4.3-7.4-6.8-11.2c-1.9-8.7-4.3-14.8-3.7-24.2c2.5-48.3,64.4-96.6,105.9-97.3c13.6-0.6,26,4.4,26.6,18
			c1.2,15.5-14.2,28.5-26.6,36.6c-18,11.8-42.7,21.7-66.9,13C1209.5,311.6,1200.9,320.3,1202.7,336.4z M1275.8,260.8
			c-14.9,3.1-26.6,9.9-36.5,18C1254.8,275.7,1266.5,269.5,1275.8,260.8z"/>
	</g>
	<g>
		<path class="st0" d="M1461.5,505.6c-12.5,16-52.9,10.8-51.3-8.3c4.8-13.5,15.3-18.8,29.8-18.3
			C1460.4,479.1,1470.1,490.6,1461.5,505.6z"/>
	</g>
</g>
</svg>
