<svg xmlns="http://www.w3.org/2000/svg" viewBox="0 0 69.55 62"><defs><style>.cls-1{fill:#7b645a;}.cls-2{fill:#d1c1b8;}</style></defs><g id="Layer_2" data-name="Layer 2"><g id="Layer_2-2" data-name="Layer 2"><path class="cls-1" d="M57.4,18.16A4.19,4.19,0,1,0,53.21,14a4.17,4.17,0,0,0,4.19,4.19"/><path class="cls-2" d="M13.42,34.35c-.68,0-1.37.09-2.06.06a2.05,2.05,0,0,1-1.75-.92,2.68,2.68,0,0,1-.2-1.26V10h4V8.84h-4V0H8.31A8.52,8.52,0,0,1,6.06,6.19a4.78,4.78,0,0,1-.45.45,8.58,8.58,0,0,1-4,2.05c-.38.09-.8.07-1.17.17s-.38.23-.38.78c0,.94,0,1.87,0,2.81,0,3.74,0,7.49,0,11.23,0,.92,0,1.84.06,2.75A11.86,11.86,0,0,0,.77,30,8.61,8.61,0,0,0,5.35,34.7c2.51,1.08,5.34.91,8.06.72,0-.36,0-.71,0-1.07"/><path class="cls-2" d="M35.15,48.32V47.18c-1.28,0-2-.71-2-1.56v-15a8.73,8.73,0,0,0-2.77-6,12.29,12.29,0,0,0-8.12-2.94c-3.23,0-6.88.78-9.29,3.23a6.7,6.7,0,0,0-2.17,4.29,4.81,4.81,0,1,0,9.62,0,5.12,5.12,0,0,0-3.34-4.58c-.42-.17-.46-.21-.46-.42,0-.39.46-.6.78-.68l.39-.1a14.5,14.5,0,0,1,4.47-.61c2.77,0,4.43,1.14,4.9,3.84,0,.35.07.67.07,1a5.88,5.88,0,0,1-.11,1.14,6.46,6.46,0,0,1-3.3,4.47,11.19,11.19,0,0,1-4,1.28,14.43,14.43,0,0,0-6.28,1.91,5.6,5.6,0,0,0-2.7,4.93c0,5.93,7.06,7,11.11,7H35.15Zm-11.6-1.14H22a1.54,1.54,0,0,1-1.52-1.56V37.11a2.16,2.16,0,0,1,1.66-1.92,10.14,10.14,0,0,0,1.46-.53Z"/><path class="cls-2" d="M42.82,18.19,47.25,29l-1.06,2.59a.45.45,0,0,1-.43.25.41.41,0,0,1-.42-.25L39.8,18.19H28.45v1.13a3.18,3.18,0,0,1,2.91,1.78l9.58,23.2L36.19,55.79a8.12,8.12,0,0,1-4.06,4.26c-.24.11-.55.2-.75,0a.52.52,0,0,1-.14-.46c.18-1,.87-1.85.84-3a4.76,4.76,0,0,0-.89-2.7A4.8,4.8,0,1,0,24,60.17a6.37,6.37,0,0,0,3.31,1.58,8.86,8.86,0,0,0,1.62.14,9.24,9.24,0,0,0,8.37-5.67c5.11-12.42,10.29-25,15.68-38Z"/><path class="cls-2" d="M65.82,30.92c-.35,0-.71-.1-1.06-.1a4.86,4.86,0,1,0,4.79,4.86A9.18,9.18,0,0,0,67,29.33a8.71,8.71,0,0,0-1.76-1.45c-4.69-2.94-12-1.45-15.48,2.76-3,3.69-2.55,7.2-2.55,11.6V59.3c0,.86-.71,1.56-2,1.56V62H58.8V60.86c-1.28,0-2-.7-2-1.56V53.24a7,7,0,0,1,2-4.86.47.47,0,0,1,.22-.07.38.38,0,0,1,.35.35c0,.32-.11.6-.11.92a4.19,4.19,0,1,0,4.19-4.22,7.78,7.78,0,0,0-6.67,3.8c.22-.36,0-1.53,0-1.94V31.52c0-1.18-.31-3.1,1-3.69a2.51,2.51,0,0,1,1-.18,9.77,9.77,0,0,1,6.61,1.71,4.12,4.12,0,0,1,.81.75.5.5,0,0,1,.11.32.51.51,0,0,1-.5.49"/></g></g></svg>