<svg width="40" height="17" viewBox="0 0 40 17" fill="none" xmlns="http://www.w3.org/2000/svg">
<path fill-rule="evenodd" clip-rule="evenodd" d="M34.8483 7.36837H17.941C16.9434 7.36837 2.39891 6.96199 1.08623 7.31757C0.298626 7.46997 -0.278952 8.33352 0.141105 9.24787C0.613669 10.3654 3.97413 10.0098 6.0219 10.0098C11.4826 10.0098 16.9434 10.213 22.5091 10.213L35.1634 10.1114C34.1132 12.0417 29.3876 15.1911 31.5404 16.6643C32.853 17.6294 33.5881 16.2579 34.0607 15.7499C35.951 13.6672 37.4737 11.8385 39.2064 9.65424C41.3067 6.96199 38.9964 7.21598 35.1109 3.86336C34.3758 3.203 31.4879 0.307561 31.1203 0.155169C30.0702 -0.352803 29.02 0.459952 29.125 1.52669C29.2301 2.84742 34.5858 6.8604 34.8483 7.36837Z" fill="#001E60"/>
</svg>
