<svg width="40" height="17" viewBox="0 0 40 17" fill="none" xmlns="http://www.w3.org/2000/svg">
<path fill-rule="evenodd" clip-rule="evenodd" d="M5.15168 7.36837H22.059C23.0566 7.36837 37.6011 6.96199 38.9138 7.31757C39.7014 7.46997 40.279 8.33352 39.8589 9.24787C39.3863 10.3654 36.0259 10.0098 33.9781 10.0098C28.5174 10.0098 23.0566 10.213 17.4909 10.213L4.83664 10.1114C5.88678 12.0417 10.6124 15.1911 8.45963 16.6643C7.14695 17.6294 6.41185 16.2579 5.93929 15.7499C4.04903 13.6672 2.52633 11.8385 0.793591 9.65424C-1.30669 6.96199 1.00362 7.21598 4.88914 3.86336C5.62424 3.203 8.51214 0.307561 8.87969 0.155169C9.92983 -0.352803 10.98 0.459952 10.875 1.52669C10.7699 2.84742 5.41422 6.8604 5.15168 7.36837Z" fill="#001E60"/>
</svg>
